<svg version="1.0" xmlns="http://www.w3.org/2000/svg" width="896" height="896" viewBox="0 0 672 672"><path d="M424.9 63.2c-.7 3.5-1.4 6.5-1.5 6.8 0 .3-.3 1.2-.7 2-.3.8-1.5 4.3-2.6 7.7-2.9 8.8-9.1 24.1-11.8 29.2-1.3 2.4-2.3 5-2.3 5.7 0 .7-.3 1.4-.7 1.6-.5.1-2 2.5-3.4 5.3-11.2 21.6-24.4 41.2-40.9 60.5-9.8 11.6-29.2 30.5-41.5 40.5-16 13-33.5 29.9-33.5 32.4 0 .5-.4 1.1-.9 1.3-1.5.5-19.1 23.9-19.1 25.4 0 .3-1.3 2.5-2.9 4.8-7.1 10.3-17.4 33-22.7 50.1-2.4 7.7-2.8 9-3.9 14.5-.2 1.4-.9 4.8-1.5 7.6-3.6 17.3-4 44.1-1 61.4.5 3 1.2 6.9 1.5 8.7.9 5.6 3.6 15.6 6.3 23.8 1.4 4.4 2.7 8.2 2.7 8.5.2.7 1.6 4 3.5 8.5 3.5 8 4.9 11.5 4.5 11.5-.3 0-3.3-1.7-6.7-3.8-13-7.9-36-17.7-46.3-19.7-1.1-.2-2-.4-2-.5 0-.1-.8-.3-1.7-.5-.9-.2-3.9-.8-6.8-1.4-9.9-2.1-15.6-2.6-30.5-2.5-15.5.2-17.4.5-39.5 6.2-6.4 1.7-13.6 3.3-16 3.7-2.5.3-5.2.8-6 1-8.4 2.4-46 2.4-60 0-11.4-1.9-27.2-6.6-33.5-9.9-1.6-.8-3-1.4-3.2-1.2-.2.1.6 2.9 1.7 6.2 1.1 3.2 2.1 6.1 2.2 6.4 0 .3.4 1.5.9 2.8.5 1.3.9 2.5.9 2.8 0 2.9 17.3 39.1 22.1 46.2 1.6 2.4 2.9 4.5 2.9 4.8 0 .6 9.7 15.1 12.4 18.5 1.2 1.5 3.2 4.1 4.6 5.9 7.9 10.1 25.4 27.9 30.3 30.8 1.5.9 2.7 1.9 2.7 2.3 0 1 18.9 13.4 27.3 17.8 15 7.8 37.6 15.1 52.2 16.6 2.2.3 6 .7 8.5 1.1 13.4 1.8 35.3.5 55.5-3.1 10.9-2 11.1-2.1 18.5-4 3.6-.9 7-1.8 7.5-2 .6-.1 1.7-.4 2.5-.7.8-.3 5.1-1.8 9.5-3.3 12.3-4.2 28.5-10.6 29.1-11.6.3-.5-.5-.5-1.8-.1-4.1 1.5-37.7.5-48.3-1.4-1.6-.3-4.1-.7-5.5-.9-5-.7-9.6-1.6-13-2.6-1.9-.6-4.8-1.3-6.5-1.5-5.1-.9-23.3-7.3-33.7-11.9-16.9-7.4-38.5-20.7-49.8-30.5-3.1-2.7-2.4-2.5 6.9 2.1 5.6 2.8 10.8 5.2 11.5 5.3.6.1 2.9 1 5.1 2 10.4 4.6 30.9 11.7 41 14.2.6.1 3.9 1 7.5 1.9 3.6.9 7.6 1.8 9 2.1 1.4.2 4.5.9 7 1.4 17 3.6 46.7 5.2 63.1 3.5 3-.4 7-.8 8.9-1 10-1.1 12.2-3 29.7-24.9 1.8-2.3 4.1-5 5-6.2 1-1.1 2.3-2.7 2.8-3.6.6-.8 4.4-6.3 8.5-12.2 17.5-24.8 36.6-59.7 48.2-88.1 2.8-6.7 3.7-9.3 3.8-10 0-.3.6-1.8 1.4-3.3 2.6-5 13.6-39.2 15.1-47.2.2-.8.4-1.5.5-1.5.1 0 .3-.7.5-1.5.1-.8 1.4-6.7 2.8-13 1.5-6.3 2.9-12.9 3.1-14.5.3-1.7.8-4.1 1.1-5.5.3-1.4.7-4.1 1-6 .4-3.5 1.5-10 2-13.1.2-.9.6-5.2 1-9.5s.9-8.6 1.1-9.4c.1-.8.3-3.3.3-5.4.2-7.8 2-2.1 2.7 8.4 1.1 18.2.3 42.1-2 58-.3 1.9-.8 5.7-1.1 8.5-.3 2.7-.8 5.7-1 6.5-.2.8-.6 3.3-1 5.5-.3 2.2-.7 4.7-1 5.5-.2.8-.6 2.6-.9 4-1 6.2-5.8 25.7-6.6 27.1-.5.9-1.2 3.4-1.6 5.5-1 4.7-.9 4.5-1.7 6.4-.3.8-1.5 4.4-2.7 8-1.2 3.6-2.6 7.4-3 8.5-.4 1.1-2 5.4-3.5 9.5-2.6 7.2-5.9 15-11.2 27-3.5 7.9-16 32.6-19.4 38.5-1.6 2.7-3.4 5.9-3.9 7-1.1 2.3-13.3 22-17.6 28.4-1.6 2.4-3.3 5.1-3.9 6-.5.9-1.3 1.8-1.6 2.1-1 .8-3.1 5.1-2.7 5.5.2.2 3.6-1.6 7.6-4.1 4-2.4 7.7-4.4 8.1-4.4.5 0 1.1-.4 1.3-.8.2-.5 4.6-3.7 9.8-7.1 11.1-7.3 21.3-14.7 24.7-17.9 1.3-1.2 2.7-2.2 3-2.2.3 0 2.2-1.5 4.2-3.3 2.1-1.7 5.9-5 8.6-7.2 14.6-12 36.5-33.9 49.1-49.2 14.8-17.9 22.7-29.3 36.4-52.3 2.4-3.9 16-32 16.5-34 .5-2.1 1.8-5.8 2.5-7.5 1.2-2.8 5-13.5 4.9-13.8-.1-.1.6-2.7 1.5-5.8.9-3.1 1.8-6.5 2.1-7.5 2.9-14 4.4-21.9 5-26.4.4-3 .9-7.1 1.2-9 1.1-8.5 1-46.1-.2-55.5-1.7-13.3-2.6-19.6-3.2-22-.5-2.1-2.1-9.7-2.7-13-1.2-6.3-7.7-28.6-9.6-33-.5-1.1-1.4-3.8-2.1-6-.6-2.2-1.5-4.5-1.9-5-.4-.6-1.1-2.1-1.5-3.5-3.1-10.8-22.6-49.8-33.2-66.3-2.4-3.7-4.3-7.2-4.3-7.7 0-.6-.4-1-1-1-.5 0-1-.5-1-1.2 0-.6-1.1-2.6-2.5-4.4-1.4-1.8-2.5-3.7-2.5-4.2 0-.6-.7-1.2-1.5-1.6-.8-.3-1.5-1-1.5-1.7 0-.6-1.3-2.8-3-4.9-1.6-2.1-3-4.2-3-4.8 0-.6-.4-1.2-.8-1.4-.4-.2-4.2-5-8.4-10.8-7.9-10.7-12.1-16-13-16-.3 0-1.1 2.8-1.9 6.2z"/><path d="M615.5 241.7c-17.9 3.7-33.4 18.7-37.4 36.3-2.9 12.4.5 30.1 7.2 37.4.9 1.1 1.7 2.4 1.7 2.8 0 1.2 5.5 6.3 10.8 9.9 4.3 3.1 10 5.8 13.6 6.5 1.2.2 3.5.7 5.1 1.1 1.7.3 6 .6 9.7.6 7.5-.1 7.5 0 3.9 8-1.2 2.5-2.1 5-2.1 5.6 0 .5-.7 2.2-1.5 3.8-.9 1.5-2 3.9-2.5 5.3-.6 1.4-1.4 3.2-1.9 4-.5.8-3.7 7.1-7.1 14-7.1 14.1-16.5 30.3-25.3 43.5-5.7 8.5-22.3 31.4-23.6 32.5-.3.3-2.4 2.7-4.6 5.5-2.1 2.7-4.2 5.2-4.5 5.5-.3.3-3.5 3.8-7 7.9-15.5 17.7-41.7 42.1-59 55.1-1.8 1.4-3.8 2.9-4.4 3.5-2.4 2.2-35.2 24.5-36 24.5-.2 0-3.3 1.8-6.7 3.9-3.5 2.2-9.8 5.7-13.9 7.8-4.1 2.1-7.6 4.1-7.8 4.5-.2.5-.8.8-1.3.8s-5.1 2.1-10.2 4.6c-5.1 2.5-9.4 4.6-9.7 4.7-.5 0-6.9 2.7-13.5 5.6-6.6 2.9-18.4 7.3-18.8 6.9-.2-.2-1.1.3-1.9 1-.9.7-2.4 1.4-3.4 1.7-1.1.2-6.2 1.7-11.4 3.5-5.2 1.7-10.2 3.3-11 3.5-.8.1-3.5.9-6 1.6-5.6 1.5-6 1.7-8.5 2.3-1.1.3-4.5 1.2-7.7 2-5.5 1.5-8.6 2.2-13.8 3.2-1.4.2-3.9.9-5.5 1.4-2.4.7-1.8.8 2.5.4 3-.3 7.4-1 9.8-1.5 2.3-.5 5.9-1.2 8-1.5 11.8-1.7 50.6-12.5 62.7-17.4 1.1-.4 8.8-3.4 17-6.6 8.3-3.2 15.2-6.1 15.5-6.6.3-.4 1.5-.9 2.5-1.1 2.3-.3 29.4-13.9 37.3-18.6 2.9-1.7 5.7-3.1 6.2-3.1.4 0 1-.3 1.2-.8.2-.4 1.9-1.6 3.8-2.6 1.9-1.1 9.3-5.8 16.4-10.5 7.1-4.7 14.1-9.4 15.5-10.3 1.4-.9 3.1-2.1 3.7-2.7.7-.5 5.2-4 10-7.7 4.9-3.7 9.6-7.4 10.5-8.3.9-.9 3.1-2.8 5-4.3 9-7 33.6-31 44.4-43.3 3.3-3.7 6.5-7.3 7-7.9.6-.6 3-3.6 5.5-6.6 2.4-3 5.2-6.4 6.2-7.5 5.9-6.7 35.8-50.1 35.8-51.9 0-.3 1.5-2.9 3.3-5.8 7.6-11.9 24-44.5 30.7-60.8 1.2-3 3.1-7.4 4.1-9.8 7.8-17.5 9.2-30.1 4.9-42.9-3-9.2-7.1-15.4-13.7-21.3-4.5-4-9.9-7.4-10.6-6.8-.2.2-1-.2-1.8-.9-3.6-2.9-20-5.1-27.4-3.6z"/></svg>