<svg xmlns="http://www.w3.org/2000/svg" width="84" height="70" viewBox="0 0 84 70"><g><g><path fill="#ff817e" d="M52.704 29.113c-1.352 22.176-14.915 35.255-14.915 35.255-10.933 2.072-21.799-4.265-21.799-4.265 9.686 8.354 20.691 6.58 20.691 6.58C7.664 79.634-.002 49.5-.002 49.5c7.688 3.662 16.564.383 16.564.383 7.979-1.793 15.126 3.364 15.126 3.364-8.86-18.359 6.887-31.333 6.887-31.333C51.157 12.374 53.35-.001 53.35-.001 86.545 41.779 41.91 64.85 41.91 64.85c14.054-20.003 10.793-35.737 10.793-35.737zm30.801 2.246c-.005.03-.008.06-.02.09-14.12 36.49-47.387 38.542-47.387 38.542 31.527-5.892 41.604-30.865 43.084-35.05a5.862 5.862 0 0 1-4.105-.675c-2.836-1.642-3.81-5.284-2.18-8.138a5.903 5.903 0 0 1 8.088-2.193c2.602 1.509 3.632 4.702 2.52 7.424z"/></g></g></svg>